<svg width="88" height="71" viewBox="0 0 88 71" fill="none" xmlns="http://www.w3.org/2000/svg">
<path d="M44.9258 4.22757C28.2887 -0.698493 15.2997 10.3852 10.8848 16.5427C4.95962 27.5799 10.8848 39.7789 11.6981 40.9407C12.3487 41.8702 11.427 43.7291 10.8848 44.5423C7.90287 46.2076 2.17128 49.9331 3.10073 51.5132C4.03017 53.0932 14.0992 52.1715 19.0175 51.5132C21.4573 50.9323 22.6191 50.8161 24.0133 50.8161C25.756 50.8161 33.8886 52.9073 36.0961 53.0235C38.3035 53.1397 45.9715 51.5132 54.685 46.9821C61.6559 43.3573 64.1731 34.0086 64.5604 29.7874C64.9477 23.32 61.5629 9.15364 44.9258 4.22757Z" stroke="white" stroke-width="6"/>
<path d="M64.9089 28.5094C68.6655 29.7099 76.7129 33.9002 78.8506 41.0569C81.5228 50.0028 76.8756 56.9737 76.527 57.3222C76.1785 57.6708 90.004 65.8034 83.0332 67.4299C77.4565 68.7312 71.4925 65.0289 69.2076 63.4798C66.3031 65.6098 59.9132 68.5918 50.6187 65.2225C39.0155 61.0164 38.5359 55.231 37.6064 53.0235" stroke="white" stroke-width="6"/>
<circle cx="26.5" cy="29.7475" r="3.5" fill="white"/>
<circle cx="36.5" cy="29.7475" r="3.5" fill="white"/>
<circle cx="46.5" cy="29.7475" r="3.5" fill="white"/>
</svg>
